<svg xmlns="http://www.w3.org/2000/svg" viewBox="0 0 100 100" width="100" height="100" role="img" aria-label="Simon">
  <!-- four segments, 6 degree gaps, no strokes: shapes read by color contrast -->
  <path d="M50.68,37.02 L52.09,10.05 A40,40 0 0,1 89.95,47.91 L62.98,49.32 A13,13 0 0,0 50.68,37.02 Z" fill="#5aa0db"/>
  <path d="M62.98,50.68 L89.95,52.09 A40,40 0 0,1 52.09,89.95 L50.68,62.98 A13,13 0 0,0 62.98,50.68 Z" fill="#f7c948"/>
  <path d="M49.32,62.98 L47.91,89.95 A40,40 0 0,1 10.05,52.09 L37.02,50.68 A13,13 0 0,0 49.32,62.98 Z" fill="#b7ce3c"/>
  <path d="M37.02,49.32 L10.05,47.91 A40,40 0 0,1 47.91,10.05 L49.32,37.02 A13,13 0 0,0 37.02,49.32 Z" fill="#f0563e"/>
</svg>
